<svg xmlns="http://www.w3.org/2000/svg" width="24" height="24" viewBox="0 0 24 24" fill="#FFFFFF">
  <path d="M12 .297c-6.63 0-12 5.373-12 12 0 5.303 3.438 9.8 8.205 11.385.6.113.82-.258.82-.577 0-.285-.01-1.04-.015-2.04-3.338.726-4.042-1.61-4.042-1.61-.546-1.387-1.333-1.757-1.333-1.757-1.09-.744.083-.729.083-.729 1.205.085 1.84 1.236 1.84 1.236 1.07 1.835 2.809 1.305 3.495.998.108-.776.42-1.305.762-1.605-2.665-.304-5.466-1.332-5.466-5.93 0-1.31.467-2.381 1.236-3.221-.124-.303-.536-1.523.117-3.176 0 0 1.008-.322 3.301 1.23.957-.266 1.983-.399 3.003-.404 1.02.005 2.047.138 3.006.404 2.29-1.552 3.296-1.23 3.296-1.23.655 1.653.243 2.873.12 3.176.772.84 1.235 1.911 1.235 3.221 0 4.61-2.804 5.623-5.475 5.921.43.37.823 1.102.823 2.222 0 1.604-.015 2.896-.015 3.286 0 .32.216.694.825.576C20.565 22.092 24 17.593 24 12.297c0-6.627-5.373-12-12-12"/>
</svg>
